:SAMPLES-PER-SECOND 30
:FULLY-SPECIFIED
:DEGREES
50
root  -20.5648 39.6131 3.02575 -158.024 82.1438 -160.712
RightUpLeg  -29.151 2.43329 5.64865
RightLeg  34.1682 8.4027 -1.05474
RightFoot  2.55583 -0.525897 3.83957
RightToes  -4.07455e-010 -1.59028e-015 9.93923e-017
Spine  4.71774 -4.15609 -3.59753
Spine1  8.8789 -5.22729 2.45977
HEad  -15.7503 2.42648 6.32015
LeftShoulder1  9.93923e-017 0 1.22299e-017
LeftArm  20.4609 29.4842 -79.9831
LeftForeArm  -45.4957 -34.6676 20.9428
LeftHand  1.15235 9.99716 -10.096
RightShoulder  1.98785e-016 -4.96962e-017 1.55301e-017
RightArm  35.3451 -51.5663 87.5519
RightForeArm  -46.0233 19.8698 -10.6711
RightHand  1.05486 -10.6891 -1.82021
LeftUpLeg  -4.07034 -11.8796 0.20269
LeftLeg  19.0459 -5.19505 2.69934
LeftFoot  -7.4173 0.154603 -3.3589
LeftToes  -3.15592e-010 -1.11882e-010 -6.33042e-011
51
root  -19.1391 39.6767 3.06944 -154.998 82.9802 -157.788
RightUpLeg  -29.4211 3.4239 4.7677
RightLeg  25.5671 8.41514 -0.533726
RightFoot  1.71053 -0.571684 4.40908
RightToes  -4.07455e-010 -1.59028e-015 9.93923e-017
Spine  3.70201 -4.41287 -3.88223
Spine1  9.04803 -5.5439 3.04338
HEad  -16.0798 3.34391 5.98576
LeftShoulder1  9.93923e-017 0 1.22299e-017
LeftArm  20.2933 27.5676 -78.8242
LeftForeArm  -44.3643 -36.4155 21.8311
LeftHand  1.14199 9.43937 -9.09947
RightShoulder  1.98785e-016 -4.96962e-017 1.55301e-017
RightArm  34.4473 -52.8935 86.9612
RightForeArm  -45.4143 19.8094 -10.4861
RightHand  1.06363 -10.7426 -1.8964
LeftUpLeg  -0.702042 -7.98989 0.327191
LeftLeg  16.5193 -7.99503 2.72551
LeftFoot  -6.5443 0.218297 -3.95503
LeftToes  -3.15592e-010 -1.11882e-010 -6.33042e-011
52
root  -17.7286 39.6076 3.12494 -153.858 83.4904 -156.479
RightUpLeg  -29.2204 4.6036 3.47982
RightLeg  16.6577 7.00039 -0.557123
RightFoot  1.75503 -0.591958 4.54929
RightToes  -4.07455e-010 -1.59028e-015 9.93923e-017
Spine  3.36807 -4.56438 -4.12779
Spine1  9.00439 -5.82068 3.71726
HEad  -16.6315 3.85815 5.79574
LeftShoulder1  9.93923e-017 0 1.22299e-017
LeftArm  20.4073 25.0131 -77.9561
LeftForeArm  -44.1795 -37.3312 22.2914
LeftHand  1.14586 9.05788 -7.51654
RightShoulder  1.98785e-016 -4.96962e-017 1.55301e-017
RightArm  32.4798 -54.2311 86.3476
RightForeArm  -44.5149 19.7075 -10.2078
RightHand  1.11239 -10.9637 -2.49295
LeftUpLeg  2.86553 -5.41868 0.480697
LeftLeg  14.2194 -9.76622 3.02227
LeftFoot  -6.73749 0.248345 -4.59313
LeftToes  -3.15592e-010 -1.11882e-010 -6.33042e-011
53
root  -16.2837 39.3998 3.18289 -153.186 83.5256 -155.67
RightUpLeg  -28.9171 5.87221 2.06295
RightLeg  8.41165 4.33527 -0.495248
RightFoot  1.44495 -0.53925 4.23327
RightToes  -4.07455e-010 -1.59028e-015 9.93923e-017
Spine  3.15597 -4.71664 -4.03804
Spine1  8.86436 -6.14006 4.37707
HEad  -17.255 4.31842 5.46803
LeftShoulder1  9.93923e-017 0 1.22299e-017
LeftArm  20.6851 22.259 -77.4786
LeftForeArm  -44.0352 -37.4564 22.3628
LeftHand  1.1726 9.12383 -6.34706
RightShoulder  1.98785e-016 -4.96962e-017 1.55301e-017
RightArm  30.7264 -55.4128 85.6692
RightForeArm  -43.5568 19.5959 -9.86561
RightHand  1.16701 -11.2702 -2.93281
LeftUpLeg  6.21151 -3.32322 1.17688
LeftLeg  12.2602 -11.6379 3.10034
LeftFoot  -7.49639 0.26663 -5.59059
LeftToes  -3.15592e-010 -1.11882e-010 -6.33042e-011
54
root  -14.7319 39.0352 3.27949 -153.531 83.5395 -156
RightUpLeg  -28.9017 5.9978 1.28509
RightLeg  2.66878 2.36061 -0.29342
RightFoot  -0.0313197 -0.462171 4.04167
RightToes  -4.07455e-010 -1.59028e-015 9.93923e-017
Spine  2.82141 -4.78874 -4.27073
Spine1  8.6013 -6.40327 5.12804
HEad  -17.9381 5.02293 4.91787
LeftShoulder1  9.93923e-017 0 1.22299e-017
LeftArm  20.8974 19.8442 -77.4412
LeftForeArm  -43.255 -36.7007 22.0353
LeftHand  1.17842 8.96553 -5.21478
RightShoulder  1.98785e-016 -4.96962e-017 1.55301e-017
RightArm  28.2203 -55.9294 84.8863
RightForeArm  -41.2872 19.2751 -8.57035
RightHand  1.18788 -11.4766 -2.85142
LeftUpLeg  9.0297 -1.63228 2.24993
LeftLeg  11.6118 -13.6217 2.71051
LeftFoot  -8.14902 0.279048 -6.59117
LeftToes  -3.15592e-010 -1.11882e-010 -6.33042e-011
55
root  -13.0337 38.5891 3.4335 -155.144 83.6641 -157.704
RightUpLeg  -29.3761 5.46258 0.944976
RightLeg  1.3252 1.02716 0.0376808
RightFoot  -0.939193 -0.444987 4.18446
RightToes  -4.07455e-010 -1.59028e-015 9.93923e-017
Spine  2.34713 -4.78491 -4.98282
Spine1  8.32445 -6.62835 6.10977
HEad  -18.5459 5.78605 4.43674
LeftShoulder1  9.93923e-017 0 1.22299e-017
LeftArm  21.0043 18.2273 -77.8723
LeftForeArm  -42.4154 -34.6683 21.1152
LeftHand  1.09426 7.94576 -3.33799
RightShoulder  1.98785e-016 -4.96962e-017 1.55301e-017
RightArm  23.6366 -55.571 84.0812
RightForeArm  -36.9473 18.4244 -5.83959
RightHand  1.19203 -11.544 -2.76625
LeftUpLeg  11.6342 -0.797044 3.25541
LeftLeg  11.8552 -14.9277 2.16859
LeftFoot  -8.28108 0.308074 -7.4434
LeftToes  -3.15592e-010 -1.11882e-010 -6.33042e-011
56
root  -11.1728 38.1634 3.60876 -153.171 83.5191 -156.033
RightUpLeg  -30.2607 4.77846 1.47905
RightLeg  4.4448 0.224738 0.0712457
RightFoot  0.537736 -0.49241 4.1099
RightToes  -4.07455e-010 -1.59028e-015 9.93923e-017
Spine  1.60602 -4.79846 -4.91592
Spine1  8.14362 -6.86688 7.1186
HEad  -18.8103 6.22705 4.08345
LeftShoulder1  9.93923e-017 0 1.22299e-017
LeftArm  21.7271 17.8513 -78.932
LeftForeArm  -42.7898 -30.998 19.5288
LeftHand  0.909242 6.45663 -0.539195
RightShoulder  1.98785e-016 -4.96962e-017 1.55301e-017
RightArm  18.3274 -54.5529 83.2688
RightForeArm  -32.0054 17.0156 -2.57762
RightHand  1.22736 -11.6688 -3.20582
LeftUpLeg  14.0535 -1.17677 4.48893
LeftLeg  12.1813 -14.8395 1.74825
LeftFoot  -7.56956 0.453677 -9.44635
LeftToes  -3.15592e-010 -1.11882e-010 -6.33042e-011
57
root  -9.18029 37.8056 3.77854 -144.273 82.9373 -147.378
RightUpLeg  -31.1218 3.65759 3.91861
RightLeg  10.2051 1.20059 -0.72818
RightFoot  3.53002 -0.46404 3.20212
RightToes  -4.07455e-010 -1.59028e-015 9.93923e-017
Spine  1.12631 -4.73457 -3.15368
Spine1  7.57846 -6.87751 7.85709
HEad  -18.7474 6.3319 3.51869
LeftShoulder1  9.93923e-017 0 1.22299e-017
LeftArm  24.3691 19.0653 -80.7391
LeftForeArm  -46.0333 -26.3529 17.3877
LeftHand  0.713706 5.45373 3.23945
RightShoulder  1.98785e-016 -4.96962e-017 1.55301e-017
RightArm  14.1549 -52.889 82.4758
RightForeArm  -28.1082 15.3845 0.248978
RightHand  1.3182 -12.0487 -4.07915
LeftUpLeg  15.9162 -4.33184 5.9549
LeftLeg  13.6367 -11.3654 1.0411
LeftFoot  -4.59235 1.0028 -13.0029
LeftToes  -3.15592e-010 -1.11882e-010 -6.33042e-011
58
root  -7.18851 37.4879 3.96248 -132.871 82.2662 -135.604
RightUpLeg  -31.501 3.82084 6.85816
RightLeg  16.8907 2.49736 -2.01962
RightFoot  4.8214 -0.186491 1.22195
RightToes  -4.07455e-010 -1.59028e-015 9.93923e-017
Spine  1.878 -4.38204 -0.666233
Spine1  6.21026 -6.40275 8.24585
HEad  -18.682 6.32712 2.68392
LeftShoulder1  9.93923e-017 0 1.22299e-017
LeftArm  14.4258 21.3418 -82.1453
LeftForeArm  -36.2099 -22.1308 8.59442
LeftHand  0.628931 5.31103 7.03956
RightShoulder  1.98785e-016 -4.96962e-017 1.55301e-017
RightArm  10.5931 -50.1253 82.1118
RightForeArm  -25.0842 13.6151 2.60515
RightHand  1.4461 -12.5814 -5.12606
LeftUpLeg  16.2791 -7.19585 7.81788
LeftLeg  18.6229 -7.41437 0.671739
LeftFoot  2.83211 2.12838 -14.5582
LeftToes  -3.15592e-010 -1.11882e-010 -6.33042e-011
59
root  -5.34189 37.1992 4.14694 -124.75 81.5529 -126.552
RightUpLeg  -31.085 5.70525 8.86861
RightLeg  23.1363 2.36008 -3.30079
RightFoot  3.12416 0.210466 -1.48506
RightToes  -4.07455e-010 -1.59028e-015 9.93923e-017
Spine  3.63915 -4.00263 1.80125
Spine1  4.90601 -5.68512 8.35437
HEad  -18.7605 6.11915 2.04609
LeftShoulder1  9.93923e-017 0 1.22299e-017
LeftArm  1.90473 24.2976 -82.9067
LeftForeArm  -23.3357 -16.2385 -0.178408
LeftHand  0.729466 5.82211 8.02711
RightShoulder  1.98785e-016 -4.96962e-017 1.55301e-017
RightArm  5.70509 -45.9886 82.5567
RightForeArm  -21.1222 12.1659 3.89845
RightHand  1.56024 -12.9225 -6.25758
LeftUpLeg  14.0968 -7.22241 9.95738
LeftLeg  27.4526 -6.75208 1.61877
LeftFoot  14.1953 2.88633 -11.669
LeftToes  -3.15592e-010 -1.11882e-010 -6.33042e-011
60
root  -3.66476 37.038 4.29829 -123.445 80.6781 -124.447
RightUpLeg  -29.7378 6.83519 10.3405
RightLeg  27.4858 1.82205 -4.41386
RightFoot  -0.0846009 0.435661 -3.84636
RightToes  -4.07455e-010 -1.59028e-015 9.93923e-017
Spine  4.72981 -3.92838 4.23133
Spine1  4.67658 -5.08137 7.92392
HEad  -18.7884 5.35799 1.9557
LeftShoulder1  9.93923e-017 0 1.22299e-017
LeftArm  -0.504643 27.5261 -83.3851
LeftForeArm  -18.0767 -11.4919 -4.73918
LeftHand  0.947706 6.81584 3.73324
RightShoulder  1.98785e-016 -4.96962e-017 1.55301e-017
RightArm  4.62314 -41.0392 83.7625
RightForeArm  -21.2069 11.926 4.17902
RightHand  1.61245 -12.8908 -7.23489
LeftUpLeg  9.28932 -7.73067 11.1868
LeftLeg  38.018 -6.75484 3.40599
LeftFoot  23.0353 2.753 -8.17864
LeftToes  -3.15592e-010 -1.11882e-010 -6.33042e-011
61
root  -1.96444 37.2033 4.417 -125.856 79.9153 -126.529
RightUpLeg  -26.8968 6.60893 11.466
RightLeg  28.6009 1.35662 -4.92683
RightFoot  -3.07589 0.433337 -4.93664
RightToes  -4.07455e-010 -1.59028e-015 9.93923e-017
Spine  4.2161 -3.71467 6.45958
Spine1  5.29892 -4.39606 6.77763
HEad  -18.5828 3.9865 2.27083
LeftShoulder1  9.93923e-017 0 1.22299e-017
LeftArm  6.98402 31.231 -83.8665
LeftForeArm  -18.9958 -10.4147 -6.44005
LeftHand  1.05726 7.77347 -4.20862
RightShoulder  1.98785e-016 -4.96962e-017 1.55301e-017
RightArm  8.1594 -36.202 84.6654
RightForeArm  -24.9913 13.7716 2.27587
RightHand  1.60491 -12.6825 -7.68223
LeftUpLeg  2.86071 -8.67585 11.498
LeftLeg  47.5419 -6.65207 5.66614
LeftFoot  24.6384 2.1136 -5.90042
LeftToes  -3.15592e-010 -1.11882e-010 -6.33042e-011
62
root  -0.157179 37.6802 4.52806 -127.894 79.9622 -128.453
RightUpLeg  -22.5338 6.29068 11.9727
RightLeg  26.6957 0.904321 -4.7555
RightFoot  -5.17475 0.342134 -4.92041
RightToes  -4.07455e-010 -1.59028e-015 9.93923e-017
Spine  2.8757 -2.83183 7.8422
Spine1  6.02545 -3.22217 5.21544
HEad  -18.162 2.29002 2.74647
LeftShoulder1  9.93923e-017 0 1.22299e-017
LeftArm  14.6571 35.7881 -84.042
LeftForeArm  -20.4946 -11.5136 -6.38782
LeftHand  1.06725 8.37852 -9.969
RightShoulder  1.98785e-016 -4.96962e-017 1.55301e-017
RightArm  14.9078 -31.9402 84.7275
RightForeArm  -31.2405 16.7399 -2.42303
RightHand  1.58948 -12.5983 -7.652
LeftUpLeg  -3.70013 -8.8162 10.9353
LeftLeg  54.0669 -6.87816 7.37105
LeftFoot  20.9132 1.4071 -4.32248
LeftToes  -3.15592e-010 -1.11882e-010 -6.33042e-011
